# xmcd CD database file
#
# Track frame offsets:
#	150
#	12073
#	25739
#	41249
#	53405
#	69774
#	83105
#	96762
#	111143
#	125365
#	138021
#	153081
#
# Disc length: 2222 seconds
#
# Revision: 0
# Processed by: cddbd v1.5.1PL2 Copyright (c) Steve Scherf et al.
# Submitted via: CDex 1.40Beta8
#
DISCID=8208ac0c
DTITLE=Roy Martin - I'm Gonna Be There
DYEAR=1900
DGENRE=Country
TTITLE0=I'm Gonna Be There
TTITLE1=Fork In The Road
TTITLE2=One Side Of a Two-Story House
TTITLE3=Up To No Good
TTITLE4=Live Music, No Drinking
TTITLE5=It Hurts Sometimes
TTITLE6=She's My Takamine
TTITLE7=Looking Glass
TTITLE8=The Old Man In The Moon
TTITLE9=I Hit The Road
TTITLE10=In A Moment Of Weakness
TTITLE11=The Way You Move My Heart
EXTD=ID3G: 2
EXTT0=
EXTT1=
EXTT2=
EXTT3=
EXTT4=
EXTT5=
EXTT6=
EXTT7=
EXTT8=
EXTT9=
EXTT10=
EXTT11=
PLAYORDER=
